<svg xmlns="http://www.w3.org/2000/svg" width="42" height="42" viewBox="0 0 42 42">
  <g id="dpa" transform="translate(1718 18097)">
    <rect id="Rectรกngulo_7917" data-name="Rectรกngulo 7917" width="42" height="42" rx="6" transform="translate(-1718 -18097)" fill="none"/>
    <g id="fmd_good_black_24dp" transform="translate(-1709 -18088)">
      <g id="Grupo_14521" data-name="Grupo 14521">
        <path id="Trazado_3948" data-name="Trazado 3948" d="M0,0H24V24H0Z" fill="none"/>
      </g>
      <g id="Grupo_14522" data-name="Grupo 14522">
        <path id="Trazado_3949" data-name="Trazado 3949" d="M12,2a7.955,7.955,0,0,0-8,8.2q0,4.77,7.34,11.23a1.017,1.017,0,0,0,1.33,0Q19.99,14.965,20,10.2A7.955,7.955,0,0,0,12,2Zm0,10a2,2,0,1,1,2-2A2.006,2.006,0,0,1,12,12Z" fill="#EB6919"/>
      </g>
    </g>
  </g>
</svg>
