<svg xmlns="http://www.w3.org/2000/svg" width="42" height="42" viewBox="0 0 42 42">
  <g id="leña" transform="translate(2028 18097)">
    <rect id="Rectángulo_7917" data-name="Rectángulo 7917" width="42" height="42" rx="6" transform="translate(-2028 -18097)" fill="none"/>
    <g id="Grupo_15965" data-name="Grupo 15965" transform="translate(-3379 -18495)">
      <path id="Trazado_3980" data-name="Trazado 3980" d="M141.235,136.1h0a2.132,2.132,0,0,0-2.135,2.135h0a2.132,2.132,0,0,0,2.135,2.135h0a2.132,2.132,0,0,0,2.135-2.135h0A2.132,2.132,0,0,0,141.235,136.1Zm-.021,3.42a1.285,1.285,0,1,1,1.285-1.285A1.285,1.285,0,0,1,141.214,139.52Z" transform="translate(1235.314 285.004)" fill="none"/>
      <path id="Trazado_3981" data-name="Trazado 3981" d="M92.225,32.894a35.7,35.7,0,0,0-3.938-7.264c-.28-.383-.5-.715-.549-.808a8.43,8.43,0,0,0-1.026-.321l-.01.508a6.441,6.441,0,0,1-1.016,2.736c-.456.808-.477.974-.135,1.161.166.083.249.062.456-.135a12.34,12.34,0,0,0,1.358-2.611c0-.29.187-.073.933,1.078a30.111,30.111,0,0,1,3.461,7.036c.176.56.321,1.057.321,1.1s-.2-.073-.446-.269a4.272,4.272,0,0,0-3.741-.85l-.518.155V33.93a4.432,4.432,0,0,0-.964-2.311,9.618,9.618,0,0,1-1.119-2.135c-.114-.352-.539-.207-1.036.363a16.032,16.032,0,0,0-2.891,5.036,8.5,8.5,0,0,0-.57,3.326,4.52,4.52,0,0,0,.767,2.881,6.089,6.089,0,0,0,4.332,2.332A10.905,10.905,0,0,0,87.53,43.4a3.473,3.473,0,0,0,.684-.135,7.739,7.739,0,0,0,4.446-3.554,4.456,4.456,0,0,0,.228-.549,5.243,5.243,0,0,0,.3-2.176A15.856,15.856,0,0,0,92.225,32.894Zm-3.938,9.648a7,7,0,0,1-3.026.114h0a5.031,5.031,0,0,1-3.223-2.508c-.974-2.041-.083-5.762,2.135-8.829l.58-.808.269.487a14.659,14.659,0,0,0,.8,1.233,2.988,2.988,0,0,1,.684,2.207,3.314,3.314,0,0,1-.58,1.005,4.141,4.141,0,0,0-1.005,2.1,3.985,3.985,0,0,0,1.254,3.565,3.593,3.593,0,0,0,1.876,1.047l.694.187Zm3.9-4.373a3.215,3.215,0,0,1-3.212,3.212h0a3.212,3.212,0,0,1-.01-6.425h.01a3.215,3.215,0,0,1,3.212,3.212Z" transform="translate(1287.578 385.039)" fill="none"/>
      <circle id="Elipse_286" data-name="Elipse 286" cx="1.285" cy="1.285" r="1.285" transform="translate(1375.244 421.963)" fill="#EB6919"/>
      <path id="Trazado_3982" data-name="Trazado 3982" d="M131.912,125.4h-.01a3.212,3.212,0,0,0,.01,6.425h0a3.215,3.215,0,0,0,3.212-3.212h0A3.215,3.215,0,0,0,131.912,125.4Zm2.135,3.244a2.132,2.132,0,0,1-2.135,2.135h0a2.132,2.132,0,0,1-2.135-2.135h0a2.132,2.132,0,0,1,2.135-2.135h0a2.132,2.132,0,0,1,2.135,2.135Z" transform="translate(1244.637 294.595)" fill="#EB6919"/>
      <path id="Trazado_3983" data-name="Trazado 3983" d="M93.461,93.2a4,4,0,0,1-1.254-3.565,4.1,4.1,0,0,1,1.005-2.1,2.919,2.919,0,0,0,.58-1.005,2.988,2.988,0,0,0-.684-2.207c-.29-.415-.653-.974-.8-1.233l-.269-.487-.58.808c-2.207,3.067-3.109,6.788-2.135,8.829a5.031,5.031,0,0,0,3.223,2.508h0a7.166,7.166,0,0,0,3.026-.114l.456-.187-.694-.187A3.609,3.609,0,0,1,93.461,93.2Z" transform="translate(1280.28 332.96)" fill="#EB6919"/>
      <path id="Trazado_3984" data-name="Trazado 3984" d="M12,0A12,12,0,1,0,24,12,11.994,11.994,0,0,0,12,0Zm8.456,17.181a4.456,4.456,0,0,1-.228.549,7.66,7.66,0,0,1-4.446,3.554,3.473,3.473,0,0,1-.684.135,9.685,9.685,0,0,1-1.637.021A6.089,6.089,0,0,1,9.13,19.109a4.651,4.651,0,0,1-.767-2.881,8.689,8.689,0,0,1,.57-3.326,16.444,16.444,0,0,1,2.891-5.036c.5-.57.922-.715,1.036-.363a9.676,9.676,0,0,0,1.13,2.135,4.614,4.614,0,0,1,.964,2.311v.477l.518-.155a4.258,4.258,0,0,1,3.741.85c.238.2.446.321.446.269s-.145-.549-.321-1.1a29.707,29.707,0,0,0-3.461-7.036c-.746-1.15-.933-1.368-.933-1.078a12.577,12.577,0,0,1-1.358,2.611c-.207.2-.29.218-.456.135-.342-.187-.321-.352.135-1.161A6.741,6.741,0,0,0,14.28,3.026l.01-.508a10.748,10.748,0,0,1,1.026.321c.052.1.28.425.549.808A35.97,35.97,0,0,1,19.8,10.912a15.413,15.413,0,0,1,.953,4.073A5.481,5.481,0,0,1,20.456,17.181Z" transform="translate(1360 407)" fill="#EB6919"/>
    </g>
  </g>
</svg>