<svg xmlns="http://www.w3.org/2000/svg" width="42" height="42" viewBox="0 0 42 42">
  <g id="pellet" transform="translate(1966 18097)">
    <rect id="Rectรกngulo_7917" data-name="Rectรกngulo 7917" width="42" height="42" rx="6" transform="translate(-1966 -18097)" fill="none"/>
    <g id="Grupo_15966" data-name="Grupo 15966" transform="translate(-2731 -19603.25)">
      <g id="Grupo_15513" data-name="Grupo 15513" transform="translate(752.577 1461.1)">
        <path id="Trazado_4074" data-name="Trazado 4074" d="M50.174,87.184a1.711,1.711,0,0,1,1.382-.836H55.6l1.673-.418a1.51,1.51,0,0,0,1.011-.976,3.064,3.064,0,0,0-.813-3.264,1.5,1.5,0,0,0-1.347-.383L47.2,83.525l.012.058a1.476,1.476,0,0,1,1.3.372,2.84,2.84,0,0,1,.871,1.475,2.939,2.939,0,0,1-.07,1.719,1.467,1.467,0,0,1-.964.941l.012.058,1.51-.372A2.834,2.834,0,0,1,50.174,87.184Z" transform="translate(-21.507 -19.212)" fill="#003e8d"/>
        <ellipse id="path862-7-5" cx="2.219" cy="1.928" rx="2.219" ry="1.928" transform="translate(39.219 66.001) rotate(-76.938)" fill="#003e8d"/>
        <path id="Trazado_4075" data-name="Trazado 4075" d="M83.908,59.562a1.571,1.571,0,0,0-1.359.407,2.861,2.861,0,0,0-.871,1.522,3.124,3.124,0,0,0-.058,1.08L87,61.234a1.615,1.615,0,0,1,1.44.465,3.632,3.632,0,0,1,.976,1.742,3.5,3.5,0,0,1-.046,2c-.035.093-.07.174-.1.256l2.637.616.012-.058a1.473,1.473,0,0,1-1-.929,2.828,2.828,0,0,1-.1-1.719,2.88,2.88,0,0,1,.848-1.487,1.493,1.493,0,0,1,1.3-.395l.012-.058Z" transform="translate(-51.907)" fill="#003e8d"/>
        <path id="path860" d="M73.908,132.5a1.5,1.5,0,0,0-1.208.7,2.865,2.865,0,0,0-.5,1.684,2.918,2.918,0,0,0,.5,1.684,1.53,1.53,0,0,0,1.208.7h9.2V137.2a1.437,1.437,0,0,1-1.162-.674,2.918,2.918,0,0,1-.488-1.649,2.858,2.858,0,0,1,.488-1.65,1.454,1.454,0,0,1,1.162-.674V132.5Z" transform="translate(-43.603 -64.493)" fill="#003e8d"/>
        <ellipse id="path862" cx="1.905" cy="2.219" rx="1.905" ry="2.219" transform="translate(38.68 68.216)" fill="#003e8d"/>
        <ellipse id="path862-7" cx="1.905" cy="2.219" rx="1.905" ry="2.219" transform="matrix(0.97, -0.242, 0.242, 0.97, 22.866, 65.118)" fill="#003e8d"/>
      </g>
      <rect id="Rectรกngulo_348" data-name="Rectรกngulo 348" width="24" height="24" transform="translate(774 1515.25)" fill="none"/>
    </g>
  </g>
</svg>