<svg xmlns="http://www.w3.org/2000/svg" width="42" height="42" viewBox="0 0 42 42">
  <g id="reporte_de_precios" data-name="reporte de precios" transform="translate(1656 18097)">
    <rect id="Rectรกngulo_7918" data-name="Rectรกngulo 7918" width="42" height="42" rx="6" transform="translate(-1656 -18097)" fill="none"/>
    <g id="monetization_on_black_24dp" transform="translate(-1647 -18088)">
      <path id="Trazado_572" data-name="Trazado 572" d="M0,0H24V24H0Z" fill="none"/>
      <path id="Trazado_573" data-name="Trazado 573" d="M12,2A10,10,0,1,0,22,12,10,10,0,0,0,12,2Zm1.41,16.09v.58A1.336,1.336,0,0,1,12.08,20h-.01a1.336,1.336,0,0,1-1.33-1.33v-.6a3.966,3.966,0,0,1-3.01-2.24.851.851,0,0,1,.8-1.16h.24a.888.888,0,0,1,.81.6c.29.75,1.05,1.27,2.51,1.27,1.96,0,2.4-.98,2.4-1.59,0-.83-.44-1.61-2.67-2.14-2.48-.6-4.18-1.62-4.18-3.67,0-1.72,1.39-2.84,3.11-3.21v-.6A1.336,1.336,0,0,1,12.08,4h.01a1.336,1.336,0,0,1,1.33,1.33v.62a3.559,3.559,0,0,1,2.63,2.26.85.85,0,0,1-.81,1.13h-.26a.809.809,0,0,1-.77-.62c-.23-.76-.86-1.25-2.12-1.25-1.5,0-2.4.68-2.4,1.64,0,.84.65,1.39,2.67,1.91s4.18,1.39,4.18,3.91c-.02,1.83-1.39,2.83-3.13,3.16Z" fill="#EB6919"/>
    </g>
  </g>
</svg>
