<svg xmlns="http://www.w3.org/2000/svg" width="42" height="42" viewBox="0 0 42 42">
  <g id="usuarios" transform="translate(1780 18097)">
    <rect id="Rectรกngulo_7917" data-name="Rectรกngulo 7917" width="42" height="42" rx="6" transform="translate(-1780 -18097)" fill="none"/>
    <g id="group_black_24dp" transform="translate(-1771 -18088)">
      <path id="Trazado_3946" data-name="Trazado 3946" d="M0,0H24V24H0Z" fill="none"/>
      <path id="Trazado_3947" data-name="Trazado 3947" d="M16,11a3,3,0,1,0-3-3A2.987,2.987,0,0,0,16,11ZM8,11A3,3,0,1,0,5,8,2.987,2.987,0,0,0,8,11Zm0,2c-2.33,0-7,1.17-7,3.5V18a1,1,0,0,0,1,1H14a1,1,0,0,0,1-1V16.5C15,14.17,10.33,13,8,13Zm8,0c-.29,0-.62.02-.97.05.02.01.03.03.04.04A4.16,4.16,0,0,1,17,16.5V18a3,3,0,0,1-.18,1H22a1,1,0,0,0,1-1V16.5C23,14.17,18.33,13,16,13Z" fill="#EB6919"/>
    </g>
  </g>
</svg>